<?xml version="1.0" standalone="no"?>
<!DOCTYPE svg PUBLIC "-//W3C//DTD SVG 20010904//EN"
 "http://www.w3.org/TR/2001/REC-SVG-20010904/DTD/svg10.dtd">
<svg version="1.0" xmlns="http://www.w3.org/2000/svg"
 width="1200.000000pt" height="1200.000000pt" viewBox="0 0 1200.000000 1200.000000"
 preserveAspectRatio="xMidYMid meet">
<metadata>
Created by potrace 1.11, written by Peter Selinger 2001-2013
</metadata>
<g transform="translate(0.000000,1200.000000) scale(0.100000,-0.100000)"
fill="#000000" stroke="none">
<path d="M7640 11134 c-579 -78 -1835 -195 -2890 -269 -195 -13 -390 -27 -432
-31 l-78 -6 0 -334 0 -335 33 6 c17 3 671 104 1452 225 781 121 1430 221 1443
223 12 3 25 1 28 -4 3 -5 -71 -89 -163 -186 -881 -934 -1499 -1685 -2035
-2473 -634 -932 -1015 -1828 -1115 -2620 -24 -194 -24 -619 0 -795 60 -434
199 -753 437 -1008 338 -361 841 -595 1650 -768 315 -67 447 -101 623 -159
402 -134 571 -274 622 -517 33 -157 11 -323 -65 -480 -105 -215 -332 -397
-694 -554 l-111 -49 -3 -190 -2 -190 145 51 c376 129 718 291 925 437 412 290
608 629 627 1087 21 494 -182 816 -670 1061 -216 109 -391 169 -797 274 -356
92 -601 165 -743 221 -483 191 -754 509 -833 974 -35 207 -28 604 17 960 133
1065 676 2235 1618 3490 271 362 902 1149 1203 1501 l78 92 0 201 c0 155 -3
201 -12 200 -7 -1 -123 -16 -258 -35z"/>
</g>
</svg>
